<mxfile host="app.diagrams.net" modified="2023-09-22T08:51:35.977Z" agent="Mozilla/5.0 (Windows NT 10.0; Win64; x64) AppleWebKit/537.36 (KHTML, like Gecko) Chrome/116.0.0.0 Safari/537.36 Edg/116.0.1938.81" etag="XJghfNYzpMNqWGHkTlEn" version="21.7.5" type="github">
  <diagram id="C5RBs43oDa-KdzZeNtuy" name="Page-1">
    <mxGraphModel dx="1386" dy="751" grid="1" gridSize="10" guides="1" tooltips="1" connect="1" arrows="1" fold="1" page="1" pageScale="1" pageWidth="827" pageHeight="1169" math="0" shadow="0">
      <root>
        <mxCell id="WIyWlLk6GJQsqaUBKTNV-0" />
        <mxCell id="WIyWlLk6GJQsqaUBKTNV-1" parent="WIyWlLk6GJQsqaUBKTNV-0" />
        <mxCell id="g37QjNz19FZHffNv4__E-36" value="" style="group" vertex="1" connectable="0" parent="WIyWlLk6GJQsqaUBKTNV-1">
          <mxGeometry x="50" y="40" width="320" height="515" as="geometry" />
        </mxCell>
        <mxCell id="g37QjNz19FZHffNv4__E-20" value="高FOV摄像头" style="rounded=1;whiteSpace=wrap;html=1;fontSize=12;glass=0;strokeWidth=1;shadow=0;" vertex="1" parent="g37QjNz19FZHffNv4__E-36">
          <mxGeometry width="120" height="40" as="geometry" />
        </mxCell>
        <mxCell id="g37QjNz19FZHffNv4__E-22" value="低FOV摄像头" style="rounded=1;whiteSpace=wrap;html=1;fontSize=12;glass=0;strokeWidth=1;shadow=0;" vertex="1" parent="g37QjNz19FZHffNv4__E-36">
          <mxGeometry x="180" width="120" height="40" as="geometry" />
        </mxCell>
        <mxCell id="g37QjNz19FZHffNv4__E-24" value="120°标准摄像头模块" style="rounded=1;whiteSpace=wrap;html=1;" vertex="1" parent="g37QjNz19FZHffNv4__E-36">
          <mxGeometry y="85" width="120" height="60" as="geometry" />
        </mxCell>
        <mxCell id="g37QjNz19FZHffNv4__E-19" style="edgeStyle=orthogonalEdgeStyle;rounded=0;orthogonalLoop=1;jettySize=auto;html=1;entryX=0.5;entryY=0;entryDx=0;entryDy=0;" edge="1" parent="g37QjNz19FZHffNv4__E-36" source="g37QjNz19FZHffNv4__E-20" target="g37QjNz19FZHffNv4__E-24">
          <mxGeometry relative="1" as="geometry" />
        </mxCell>
        <mxCell id="g37QjNz19FZHffNv4__E-26" value="120°标准摄像头模块" style="rounded=1;whiteSpace=wrap;html=1;" vertex="1" parent="g37QjNz19FZHffNv4__E-36">
          <mxGeometry x="180" y="85" width="120" height="60" as="geometry" />
        </mxCell>
        <mxCell id="g37QjNz19FZHffNv4__E-21" style="edgeStyle=orthogonalEdgeStyle;rounded=0;orthogonalLoop=1;jettySize=auto;html=1;entryX=0.5;entryY=0;entryDx=0;entryDy=0;" edge="1" parent="g37QjNz19FZHffNv4__E-36" source="g37QjNz19FZHffNv4__E-22" target="g37QjNz19FZHffNv4__E-26">
          <mxGeometry relative="1" as="geometry" />
        </mxCell>
        <mxCell id="g37QjNz19FZHffNv4__E-28" value="120°摄像头&lt;br&gt;2D转3D模块" style="rounded=1;whiteSpace=wrap;html=1;" vertex="1" parent="g37QjNz19FZHffNv4__E-36">
          <mxGeometry y="175" width="120" height="60" as="geometry" />
        </mxCell>
        <mxCell id="g37QjNz19FZHffNv4__E-23" style="edgeStyle=orthogonalEdgeStyle;rounded=0;orthogonalLoop=1;jettySize=auto;html=1;" edge="1" parent="g37QjNz19FZHffNv4__E-36" source="g37QjNz19FZHffNv4__E-24" target="g37QjNz19FZHffNv4__E-28">
          <mxGeometry relative="1" as="geometry" />
        </mxCell>
        <mxCell id="g37QjNz19FZHffNv4__E-30" value="30°摄像头&lt;br&gt;2D转3D模块" style="rounded=1;whiteSpace=wrap;html=1;" vertex="1" parent="g37QjNz19FZHffNv4__E-36">
          <mxGeometry x="180" y="175" width="120" height="60" as="geometry" />
        </mxCell>
        <mxCell id="g37QjNz19FZHffNv4__E-25" style="edgeStyle=orthogonalEdgeStyle;rounded=0;orthogonalLoop=1;jettySize=auto;html=1;" edge="1" parent="g37QjNz19FZHffNv4__E-36" source="g37QjNz19FZHffNv4__E-26" target="g37QjNz19FZHffNv4__E-30">
          <mxGeometry relative="1" as="geometry" />
        </mxCell>
        <mxCell id="g37QjNz19FZHffNv4__E-32" value="测距模块" style="rounded=1;whiteSpace=wrap;html=1;" vertex="1" parent="g37QjNz19FZHffNv4__E-36">
          <mxGeometry x="90" y="275" width="120" height="60" as="geometry" />
        </mxCell>
        <mxCell id="g37QjNz19FZHffNv4__E-27" style="edgeStyle=orthogonalEdgeStyle;rounded=0;orthogonalLoop=1;jettySize=auto;html=1;entryX=0;entryY=0.5;entryDx=0;entryDy=0;" edge="1" parent="g37QjNz19FZHffNv4__E-36" source="g37QjNz19FZHffNv4__E-28" target="g37QjNz19FZHffNv4__E-32">
          <mxGeometry relative="1" as="geometry" />
        </mxCell>
        <mxCell id="g37QjNz19FZHffNv4__E-29" style="edgeStyle=orthogonalEdgeStyle;rounded=0;orthogonalLoop=1;jettySize=auto;html=1;entryX=1;entryY=0.5;entryDx=0;entryDy=0;" edge="1" parent="g37QjNz19FZHffNv4__E-36" source="g37QjNz19FZHffNv4__E-30" target="g37QjNz19FZHffNv4__E-32">
          <mxGeometry relative="1" as="geometry" />
        </mxCell>
        <mxCell id="g37QjNz19FZHffNv4__E-33" value="目标距离" style="rounded=0;whiteSpace=wrap;html=1;" vertex="1" parent="g37QjNz19FZHffNv4__E-36">
          <mxGeometry x="90" y="455" width="120" height="60" as="geometry" />
        </mxCell>
        <mxCell id="g37QjNz19FZHffNv4__E-34" style="edgeStyle=orthogonalEdgeStyle;rounded=0;orthogonalLoop=1;jettySize=auto;html=1;" edge="1" parent="g37QjNz19FZHffNv4__E-36" source="g37QjNz19FZHffNv4__E-35" target="g37QjNz19FZHffNv4__E-33">
          <mxGeometry relative="1" as="geometry" />
        </mxCell>
        <mxCell id="g37QjNz19FZHffNv4__E-35" value="融合模块" style="rounded=1;whiteSpace=wrap;html=1;" vertex="1" parent="g37QjNz19FZHffNv4__E-36">
          <mxGeometry x="90" y="365" width="120" height="60" as="geometry" />
        </mxCell>
        <mxCell id="g37QjNz19FZHffNv4__E-31" style="edgeStyle=orthogonalEdgeStyle;rounded=0;orthogonalLoop=1;jettySize=auto;html=1;" edge="1" parent="g37QjNz19FZHffNv4__E-36" source="g37QjNz19FZHffNv4__E-32" target="g37QjNz19FZHffNv4__E-35">
          <mxGeometry relative="1" as="geometry" />
        </mxCell>
        <mxCell id="g37QjNz19FZHffNv4__E-50" style="edgeStyle=orthogonalEdgeStyle;rounded=0;orthogonalLoop=1;jettySize=auto;html=1;" edge="1" parent="g37QjNz19FZHffNv4__E-36" source="g37QjNz19FZHffNv4__E-38" target="g37QjNz19FZHffNv4__E-32">
          <mxGeometry relative="1" as="geometry" />
        </mxCell>
        <mxCell id="g37QjNz19FZHffNv4__E-38" value="" style="rounded=0;whiteSpace=wrap;html=1;strokeColor=default;strokeWidth=2;perimeterSpacing=6;gradientColor=none;fillColor=none;dashed=1;" vertex="1" parent="g37QjNz19FZHffNv4__E-36">
          <mxGeometry x="-20" y="65" width="340" height="95" as="geometry" />
        </mxCell>
        <mxCell id="g37QjNz19FZHffNv4__E-39" style="edgeStyle=orthogonalEdgeStyle;rounded=0;orthogonalLoop=1;jettySize=auto;html=1;exitX=1;exitY=0.5;exitDx=0;exitDy=0;" edge="1" parent="WIyWlLk6GJQsqaUBKTNV-1" source="g37QjNz19FZHffNv4__E-38" target="g37QjNz19FZHffNv4__E-37">
          <mxGeometry relative="1" as="geometry" />
        </mxCell>
        <mxCell id="g37QjNz19FZHffNv4__E-49" value="" style="group" vertex="1" connectable="0" parent="WIyWlLk6GJQsqaUBKTNV-1">
          <mxGeometry x="440" y="12.5" width="320" height="280" as="geometry" />
        </mxCell>
        <mxCell id="g37QjNz19FZHffNv4__E-37" value="" style="rounded=0;whiteSpace=wrap;html=1;" vertex="1" parent="g37QjNz19FZHffNv4__E-49">
          <mxGeometry width="320" height="280" as="geometry" />
        </mxCell>
        <mxCell id="g37QjNz19FZHffNv4__E-40" value="标准摄像头模块" style="rounded=1;whiteSpace=wrap;html=1;" vertex="1" parent="g37QjNz19FZHffNv4__E-49">
          <mxGeometry x="160" y="127.5" width="120" height="60" as="geometry" />
        </mxCell>
        <mxCell id="g37QjNz19FZHffNv4__E-44" style="edgeStyle=orthogonalEdgeStyle;rounded=0;orthogonalLoop=1;jettySize=auto;html=1;entryX=0.25;entryY=0;entryDx=0;entryDy=0;" edge="1" parent="g37QjNz19FZHffNv4__E-49" source="g37QjNz19FZHffNv4__E-41" target="g37QjNz19FZHffNv4__E-40">
          <mxGeometry relative="1" as="geometry">
            <Array as="points">
              <mxPoint x="75" y="97.5" />
              <mxPoint x="190" y="97.5" />
            </Array>
          </mxGeometry>
        </mxCell>
        <mxCell id="g37QjNz19FZHffNv4__E-41" value="原始图像" style="rounded=0;whiteSpace=wrap;html=1;" vertex="1" parent="g37QjNz19FZHffNv4__E-49">
          <mxGeometry x="30" y="37.5" width="90" height="40" as="geometry" />
        </mxCell>
        <mxCell id="g37QjNz19FZHffNv4__E-43" style="edgeStyle=orthogonalEdgeStyle;rounded=0;orthogonalLoop=1;jettySize=auto;html=1;" edge="1" parent="g37QjNz19FZHffNv4__E-49" source="g37QjNz19FZHffNv4__E-42" target="g37QjNz19FZHffNv4__E-40">
          <mxGeometry relative="1" as="geometry" />
        </mxCell>
        <mxCell id="g37QjNz19FZHffNv4__E-42" value="原始内外参" style="rounded=0;whiteSpace=wrap;html=1;" vertex="1" parent="g37QjNz19FZHffNv4__E-49">
          <mxGeometry x="175" y="37.5" width="90" height="40" as="geometry" />
        </mxCell>
        <mxCell id="g37QjNz19FZHffNv4__E-46" style="edgeStyle=orthogonalEdgeStyle;rounded=0;orthogonalLoop=1;jettySize=auto;html=1;" edge="1" parent="g37QjNz19FZHffNv4__E-49" source="g37QjNz19FZHffNv4__E-45" target="g37QjNz19FZHffNv4__E-40">
          <mxGeometry relative="1" as="geometry" />
        </mxCell>
        <mxCell id="g37QjNz19FZHffNv4__E-45" value="标准内外参" style="rounded=0;whiteSpace=wrap;html=1;" vertex="1" parent="g37QjNz19FZHffNv4__E-49">
          <mxGeometry x="15" y="142.5" width="85" height="30" as="geometry" />
        </mxCell>
        <mxCell id="g37QjNz19FZHffNv4__E-47" value="标准图像" style="rounded=0;whiteSpace=wrap;html=1;" vertex="1" parent="g37QjNz19FZHffNv4__E-49">
          <mxGeometry x="175" y="217.5" width="90" height="40" as="geometry" />
        </mxCell>
        <mxCell id="g37QjNz19FZHffNv4__E-48" style="edgeStyle=orthogonalEdgeStyle;rounded=0;orthogonalLoop=1;jettySize=auto;html=1;" edge="1" parent="g37QjNz19FZHffNv4__E-49" source="g37QjNz19FZHffNv4__E-40" target="g37QjNz19FZHffNv4__E-47">
          <mxGeometry relative="1" as="geometry" />
        </mxCell>
      </root>
    </mxGraphModel>
  </diagram>
</mxfile>
